<?xml version="1.0" encoding="utf-8"?>
<!-- Generator: Adobe Illustrator 24.0.1, SVG Export Plug-In . SVG Version: 6.00 Build 0)  -->
<svg version="1.1" id="Layer_1" xmlns="http://www.w3.org/2000/svg" xmlns:xlink="http://www.w3.org/1999/xlink" x="0px" y="0px"
	 viewBox="0 0 45 47" style="enable-background:new 0 0 45 47;" xml:space="preserve">
<style type="text/css">
	.st0{fill:#603393;}
</style>
<title>Stack_Layers</title>
<g>
	<path class="st0" d="M22,20c-2.2,0-4,1.8-4,4s1.8,4,4,4s4-1.8,4-4S24.2,20,22,20z M22,26c-1.1,0-2-0.9-2-2s0.9-2,2-2s2,0.9,2,2
		S23.1,26,22,26z"/>
	<path class="st0" d="M33.2,30.9l1.4-3.2c0.2-0.5,0-1-0.4-1.3L32,25.2c0.1-0.6,0.1-1.3,0-1.9l2.3-1.1c0.5-0.2,0.7-0.8,0.5-1.3
		l-1.2-3.3c-0.2-0.5-0.7-0.7-1.2-0.6l-2.4,0.7c-0.4-0.5-0.8-0.9-1.3-1.4l0.8-2.4c0.2-0.5-0.1-1-0.5-1.2l-3.2-1.4
		c-0.5-0.2-1,0-1.3,0.4L23.2,14c-0.6-0.1-1.3-0.1-1.9,0l-1.1-2.3c-0.2-0.5-0.8-0.7-1.3-0.5l-3.3,1.2c-0.5,0.2-0.7,0.7-0.6,1.2
		l0.7,2.4c-0.5,0.4-0.9,0.8-1.4,1.3l-2.4-0.8c-0.5-0.2-1,0.1-1.2,0.5l-1.4,3.2c-0.2,0.5,0,1,0.4,1.3l2.2,1.2c-0.1,0.6-0.1,1.3,0,1.9
		l-2.3,1.1C9.3,26,9.1,26.5,9.2,27l1.2,3.4c0.2,0.5,0.7,0.7,1.2,0.6l2.4-0.7c0.4,0.5,0.8,0.9,1.3,1.4L14.6,34
		c-0.2,0.5,0.1,1,0.5,1.2l3.2,1.4c0.5,0.2,1,0,1.3-0.4l1.2-2.2c0.6,0.1,1.3,0.1,1.9,0l1.1,2.3c0.2,0.3,0.5,0.6,0.9,0.6
		c0.1,0,0.2,0,0.3-0.1l3.4-1.2c0.5-0.2,0.7-0.7,0.6-1.2l-0.7-2.4c0.5-0.4,0.9-0.8,1.4-1.3l2.4,0.8C32.5,31.6,33,31.4,33.2,30.9z
		 M31.7,29.2l-2.2-0.8c-0.4-0.1-0.9,0-1.1,0.3c-0.5,0.7-1.2,1.3-1.9,1.8c-0.4,0.2-0.5,0.7-0.4,1.1l0.7,2.2l-1.5,0.6l-1-2.1
		c-0.2-0.3-0.5-0.6-0.9-0.6l-0.2,0c-0.9,0.1-1.8,0.1-2.7-0.1c-0.4-0.1-0.9,0.1-1.1,0.5l-1.1,2l-1.5-0.7l0.8-2.2
		c0.1-0.4,0-0.9-0.3-1.1c-0.7-0.5-1.3-1.2-1.8-2c-0.2-0.4-0.7-0.5-1.1-0.4L12,28.7l-0.6-1.5l2.1-1c0.4-0.2,0.6-0.6,0.6-1
		c-0.1-0.9-0.1-1.8,0.1-2.7c0.1-0.4-0.1-0.9-0.5-1.1l-2-1.1l0.7-1.5l2.2,0.8c0.4,0.1,0.9,0,1.1-0.3c0.6-0.7,1.2-1.4,2-1.9
		c0.4-0.2,0.5-0.7,0.4-1.1L17.3,14l1.5-0.5l1,2.1c0.2,0.4,0.6,0.6,1,0.6c0.9-0.1,1.8-0.1,2.7,0.1c0.4,0.1,0.9-0.1,1.1-0.5l1.1-2
		l1.5,0.7l-0.8,2.2c-0.1,0.4,0,0.9,0.3,1.1c0.7,0.5,1.3,1.2,1.9,1.9c0.2,0.4,0.7,0.5,1.1,0.4l2.2-0.7l0.6,1.6l-2.1,1
		c-0.4,0.2-0.6,0.6-0.6,1.1c0.1,0.9,0.1,1.8-0.1,2.7c-0.1,0.4,0.1,0.9,0.5,1.1l2,1.1L31.7,29.2z"/>
	<path class="st0" d="M23,6h5.1c0.5,2.3,2.5,4,4.9,4c2.8,0,5-2.2,5-5s-2.2-5-5-5c-2.4,0-4.4,1.7-4.9,4H22c-0.6,0-1,0.4-1,1v5h2V6z
		 M33,2c1.7,0,3,1.3,3,3s-1.3,3-3,3s-3-1.3-3-3S31.3,2,33,2z"/>
	<path class="st0" d="M44.7,36.3L40,31.6V24c0-0.6-0.4-1-1-1h-4v2h3v6.6l-4.7,4.7c0,0,0,0,0,0c-0.4,0.4-0.4,1,0,1.4l5,5
		c0.2,0.2,0.4,0.3,0.7,0.3c0.3,0,0.5-0.1,0.7-0.3l5-5c0,0,0,0,0,0C45.1,37.3,45.1,36.7,44.7,36.3z M39,40.6L35.4,37l3.6-3.6l3.6,3.6
		L39,40.6z"/>
	<path class="st0" d="M4,24c0,0.6,0.4,1,1,1h4v-2H6v-7h3c0.6,0,1-0.4,1-1V7c0-0.6-0.4-1-1-1H1C0.4,6,0,6.4,0,7v8c0,0.6,0.4,1,1,1h3
		V24z M2,8h6v6H2V8z"/>
	<path class="st0" d="M21,41h-8v-5c0-0.2-0.1-0.4-0.2-0.5c-0.3-0.5-0.9-0.6-1.4-0.3l-8,5c-0.1,0.1-0.2,0.2-0.3,0.3
		c-0.3,0.5-0.1,1.1,0.3,1.4l8,5c0.2,0.1,0.3,0.2,0.5,0.2c0.2,0,0.3,0,0.5-0.1c0.3-0.2,0.5-0.5,0.5-0.9v-3h9c0.6,0,1-0.4,1-1v-4h-2
		V41z M11,44.2L5.9,41l5.1-3.2V44.2z"/>
</g>
</svg>
