<?xml version="1.0" encoding="utf-8"?>
<!-- Generator: Adobe Illustrator 24.0.1, SVG Export Plug-In . SVG Version: 6.00 Build 0)  -->
<svg version="1.1" id="Layer_1" xmlns="http://www.w3.org/2000/svg" xmlns:xlink="http://www.w3.org/1999/xlink" x="0px" y="0px"
	 viewBox="0 0 47 46.5" style="enable-background:new 0 0 47 46.5;" xml:space="preserve">
<style type="text/css">
	.st0{fill:#603393;}
</style>
<title>Stack_Layers</title>
<g>
	<polygon class="st0" points="47,4.5 38.2,4.5 38.2,6.5 45,6.5 45,10.5 39.9,10.5 39.9,12.5 45,12.5 45,30.5 30,30.5 30,26.2 
		28,26.2 28,30.5 28,32.5 28,39.5 19.9,39.5 19.9,41.5 30,41.5 30,32.5 47,32.5 	"/>
	<polygon class="st0" points="2,18.5 12.3,18.5 12.3,16.5 0,16.5 0,41.5 3.5,41.5 3.5,39.5 2,39.5 2,24.5 19.8,24.5 19.8,22.5 
		2,22.5 	"/>
	<rect x="4" y="19.5" class="st0" width="2" height="2"/>
	<rect x="8" y="19.5" class="st0" width="2" height="2"/>
	<rect x="12" y="19.5" class="st0" width="2" height="2"/>
	<path class="st0" d="M26.3,17.1c0.3,0,0.6,0,0.9-0.1c2.1-0.5,3.5-2.6,3-4.8c-0.5-2.1-2.6-3.5-4.8-3c-2.1,0.5-3.5,2.6-3,4.8
		C22.9,15.8,24.5,17.1,26.3,17.1z M25.9,11.1c0.1,0,0.3,0,0.4,0c0.4,0,0.8,0.1,1.1,0.3c0.9,0.6,1.2,1.8,0.6,2.8
		c-0.3,0.4-0.7,0.7-1.2,0.8c-0.5,0.1-1.1,0-1.5-0.3c-0.4-0.3-0.8-0.7-0.9-1.2c0,0,0,0,0,0C24.2,12.4,24.8,11.3,25.9,11.1z"/>
	<polygon class="st0" points="26.3,17.1 26.3,17.1 26.3,17.1 	"/>
	<path class="st0" d="M14,13.4l2.4,0.7c0.1,0.6,0.2,1.2,0.3,1.8l-2,1.6c-0.4,0.3-0.5,0.9-0.2,1.3l1.9,2.9c0.3,0.4,0.9,0.6,1.3,0.3
		l2.2-1.2c0.5,0.4,1,0.7,1.5,1l-0.3,2.5c-0.1,0.5,0.3,1,0.8,1.1l3.5,0.7c0.1,0,0.1,0,0.2,0c0.5,0,0.9-0.3,1-0.7l0.7-2.4
		c0.6-0.1,1.2-0.2,1.8-0.3l1.6,2c0.3,0.4,0.9,0.5,1.3,0.2L35,23c0.4-0.3,0.6-0.9,0.3-1.3l-1.2-2.2c0.4-0.5,0.7-1,1-1.6l2.5,0.3
		c0.5,0.1,1-0.3,1.1-0.8l0.7-3.4c0,0,0,0,0,0c0.1-0.5-0.2-1.1-0.7-1.2l-2.4-0.7c-0.1-0.6-0.2-1.2-0.4-1.8l2-1.6
		c0.4-0.3,0.5-0.9,0.2-1.3l-1.9-2.9c-0.3-0.4-0.9-0.6-1.3-0.3l-2.2,1.2c-0.5-0.4-1-0.7-1.6-1l0.3-2.5c0.1-0.5-0.3-1-0.8-1.1L27.2,0
		c-0.5-0.1-1,0.2-1.1,0.7l-0.7,2.4c-0.6,0.1-1.2,0.2-1.8,0.4l-1.6-2c-0.3-0.4-0.9-0.5-1.4-0.2l-2.9,1.9c-0.4,0.3-0.6,0.9-0.3,1.3
		l1.3,2.2c-0.4,0.5-0.8,1-1,1.5L15.1,8c-0.5-0.1-1,0.3-1.1,0.8l-0.7,3.4C13.2,12.7,13.5,13.2,14,13.4z M15.8,10.1l2.3,0.3
		c0.4,0,0.8-0.2,1-0.6C19.5,9,20,8.2,20.6,7.5c0.3-0.3,0.4-0.8,0.2-1.2l-1.1-2L21,3.5l1.4,1.8c0.3,0.3,0.7,0.5,1.1,0.3
		c0.8-0.3,1.7-0.5,2.6-0.5c0.4,0,0.8-0.3,0.9-0.7l0.6-2.2l1.6,0.3L29,4.8c0,0.4,0.2,0.8,0.6,1c0.8,0.4,1.6,0.9,2.2,1.5
		c0.3,0.3,0.8,0.4,1.2,0.1l2.1-1.1L36,7.7l-1.9,1.4c-0.3,0.3-0.5,0.7-0.3,1.1c0.3,0.8,0.5,1.7,0.5,2.6c0,0.4,0.3,0.8,0.7,0.9
		l2.2,0.6L37,16.1l-2.3-0.3c-0.4,0-0.8,0.2-1,0.6c-0.4,0.8-0.9,1.6-1.5,2.2c-0.3,0.3-0.4,0.8-0.2,1.2l1.1,2l-1.4,0.9l-1.4-1.8
		c-0.3-0.3-0.7-0.5-1.1-0.3c-0.8,0.3-1.7,0.5-2.6,0.5c-0.4,0-0.8,0.3-0.9,0.7L25,24l-1.6-0.3l0.2-2.3c0-0.4-0.2-0.8-0.6-1
		c-0.8-0.4-1.5-0.9-2.1-1.5c-0.3-0.3-0.8-0.4-1.2-0.2l-2,1.1l-0.9-1.4l1.8-1.4c0.3-0.3,0.5-0.7,0.3-1.1c-0.3-0.8-0.5-1.7-0.5-2.6
		c0-0.4-0.3-0.8-0.7-0.9l-2.2-0.6L15.8,10.1z"/>
	<path class="st0" d="M15.2,38.5c1.3-1.1,2-2.7,2-4.5v-1.6c0-0.2,0-0.4,0-0.7c-0.2-3-2.8-5.4-5.8-5.2c-3,0.2-5.4,2.8-5.2,5.8V34
		c0,0.1,0,0.2,0,0.2c0,1.7,0.8,3.2,2,4.3c-2.3,0.8-4.2,2.3-4.2,3.7v2.2c0,1.2,1,2.1,2.1,2.1h11.2c1.2,0,2.1-1,2.1-2.1v-2.2
		C19.4,40.8,17.5,39.3,15.2,38.5z M11.7,28.5c0.1,0,0.2,0,0.2,0c2,0.1,3.4,1.9,3.3,3.8V34c0,0.2,0,0.4,0,0.5
		c-0.1,1.9-1.8,3.4-3.8,3.2C9.5,37.6,8,35.9,8.2,34v-1.6c0-0.1,0-0.1,0-0.2C8.2,30.2,9.7,28.6,11.7,28.5z M17.4,44.4
		c0,0.1-0.1,0.1-0.1,0.1H6.1c-0.1,0-0.1-0.1-0.1-0.1v-2.2c0.2-0.7,3.1-2.4,5.8-2.4c2.6,0,5.5,1.8,5.8,2.4V44.4z"/>
</g>
</svg>
