<?xml version="1.0" encoding="UTF-8"?>
<svg xmlns="http://www.w3.org/2000/svg" xmlns:xlink="http://www.w3.org/1999/xlink" width="481.6pt" height="102.8pt" viewBox="0 0 481.6 102.8" version="1.1">
<defs>
<clipPath id="clip1">
  <path d="M 334 63 L 350 63 L 350 102.800781 L 334 102.800781 Z M 334 63 "/>
</clipPath>
<clipPath id="clip2">
  <path d="M 468 62 L 481.601563 62 L 481.601563 68 L 468 68 Z M 468 62 "/>
</clipPath>
</defs>
<g id="surface1">
<path style=" stroke:none;fill-rule:evenodd;fill:rgb(47.851563%,48.242188%,49.021912%);fill-opacity:1;" d="M 220.523438 83.957031 L 230.761719 82.960938 C 231.183594 84.214844 231.773438 85.109375 232.535156 85.640625 C 233.296875 86.183594 234.304688 86.453125 235.578125 86.453125 C 236.964844 86.453125 238.03125 86.144531 238.796875 85.535156 C 239.382813 85.089844 239.675781 84.519531 239.675781 83.847656 C 239.675781 83.085938 239.285156 82.496094 238.515625 82.082031 C 237.960938 81.785156 236.476563 81.421875 234.085938 80.988281 C 230.503906 80.339844 228.011719 79.753906 226.617188 79.207031 C 225.226563 78.652344 224.050781 77.726563 223.097656 76.429688 C 222.140625 75.132813 221.664063 73.652344 221.664063 71.980469 C 221.664063 70.160156 222.183594 68.589844 223.214844 67.273438 C 224.242188 65.953125 225.660156 64.964844 227.464844 64.316406 C 229.273438 63.667969 231.695313 63.339844 234.738281 63.339844 C 237.945313 63.339844 240.316406 63.597656 241.847656 64.09375 C 243.378906 64.601563 244.648438 65.382813 245.671875 66.441406 C 246.6875 67.496094 247.535156 68.925781 248.21875 70.730469 L 238.4375 71.722656 C 238.179688 70.839844 237.765625 70.1875 237.171875 69.769531 C 236.355469 69.214844 235.378906 68.933594 234.230469 68.933594 C 233.070313 68.933594 232.214844 69.148438 231.6875 69.578125 C 231.148438 70.003906 230.890625 70.515625 230.890625 71.121094 C 230.890625 71.804688 231.226563 72.308594 231.902344 72.65625 C 232.578125 73.003906 234.046875 73.3125 236.3125 73.597656 C 239.738281 73.996094 242.285156 74.546875 243.960938 75.257813 C 245.632813 75.96875 246.914063 76.980469 247.796875 78.304688 C 248.6875 79.617188 249.128906 81.066406 249.128906 82.648438 C 249.128906 84.246094 248.660156 85.800781 247.71875 87.308594 C 246.785156 88.820313 245.304688 90.019531 243.289063 90.90625 C 241.265625 91.804688 238.515625 92.246094 235.039063 92.246094 C 230.128906 92.246094 226.628906 91.527344 224.546875 90.089844 C 222.464844 88.652344 221.121094 86.597656 220.523438 83.957031 Z M 220.523438 83.957031 "/>
<path style=" stroke:none;fill-rule:evenodd;fill:rgb(47.851563%,48.242188%,49.021912%);fill-opacity:1;" d="M 189.90625 84.132813 L 200.144531 83.136719 C 200.570313 84.390625 201.15625 85.285156 201.921875 85.820313 C 202.679688 86.363281 203.691406 86.628906 204.964844 86.628906 C 206.347656 86.628906 207.421875 86.328125 208.179688 85.714844 C 208.765625 85.269531 209.0625 84.703125 209.0625 84.027344 C 209.0625 83.261719 208.671875 82.675781 207.902344 82.257813 C 207.339844 81.964844 205.863281 81.601563 203.464844 81.164063 C 199.886719 80.515625 197.394531 79.929688 196.003906 79.378906 C 194.613281 78.835938 193.433594 77.90625 192.484375 76.609375 C 191.523438 75.3125 191.050781 73.835938 191.050781 72.160156 C 191.050781 70.339844 191.566406 68.769531 192.597656 67.457031 C 193.628906 66.128906 195.046875 65.144531 196.851563 64.496094 C 198.660156 63.847656 201.078125 63.519531 204.128906 63.519531 C 207.335938 63.519531 209.699219 63.777344 211.230469 64.273438 C 212.761719 64.78125 214.03125 65.5625 215.054688 66.621094 C 216.074219 67.675781 216.921875 69.105469 217.605469 70.910156 L 207.824219 71.902344 C 207.566406 71.015625 207.148438 70.367188 206.554688 69.953125 C 205.742188 69.390625 204.761719 69.113281 203.613281 69.113281 C 202.453125 69.113281 201.597656 69.332031 201.070313 69.753906 C 200.535156 70.179688 200.273438 70.695313 200.273438 71.300781 C 200.273438 71.984375 200.613281 72.488281 201.285156 72.839844 C 201.964844 73.183594 203.429688 73.492188 205.699219 73.777344 C 209.121094 74.175781 211.671875 74.726563 213.339844 75.4375 C 215.019531 76.148438 216.300781 77.160156 217.179688 78.484375 C 218.070313 79.796875 218.511719 81.246094 218.511719 82.832031 C 218.511719 84.425781 218.046875 85.980469 217.101563 87.488281 C 216.171875 89.003906 214.691406 90.203125 212.675781 91.089844 C 210.652344 91.984375 207.902344 92.425781 204.425781 92.425781 C 199.515625 92.425781 196.011719 91.710938 193.929688 90.269531 C 191.84375 88.835938 190.503906 86.777344 189.90625 84.132813 Z M 189.90625 84.132813 "/>
<path style=" stroke:none;fill-rule:evenodd;fill:rgb(47.851563%,48.242188%,49.021912%);fill-opacity:1;" d="M 177.949219 75.160156 C 177.742188 73.109375 177.210938 71.640625 176.339844 70.761719 C 175.46875 69.878906 174.324219 69.429688 172.90625 69.429688 C 171.265625 69.429688 169.960938 70.105469 168.972656 71.4375 C 168.351563 72.273438 167.953125 73.507813 167.789063 75.160156 Z M 188.429688 80.230469 L 167.761719 80.230469 C 167.941406 81.933594 168.394531 83.195313 169.101563 84.03125 C 170.097656 85.230469 171.402344 85.828125 173.003906 85.828125 C 174.015625 85.828125 174.984375 85.566406 175.890625 85.042969 C 176.453125 84.714844 177.050781 84.136719 177.691406 83.300781 L 187.851563 84.261719 C 186.296875 87.042969 184.425781 89.03125 182.230469 90.238281 C 180.03125 91.4375 176.886719 92.042969 172.777344 92.042969 C 169.214844 92.042969 166.414063 91.527344 164.363281 90.496094 C 162.324219 89.464844 160.628906 87.828125 159.289063 85.578125 C 157.945313 83.332031 157.273438 80.691406 157.273438 77.65625 C 157.273438 73.339844 158.621094 69.839844 161.3125 67.175781 C 164.011719 64.503906 167.726563 63.160156 172.476563 63.160156 C 176.324219 63.160156 179.367188 63.765625 181.589844 64.964844 C 183.820313 66.152344 185.523438 67.894531 186.683594 70.160156 C 187.851563 72.433594 188.429688 75.390625 188.429688 79.03125 Z M 188.429688 80.230469 "/>
<path style=" stroke:none;fill-rule:evenodd;fill:rgb(47.851563%,48.242188%,49.021912%);fill-opacity:1;" d="M 122.878906 64.152344 L 132.929688 64.152344 L 132.929688 68.644531 C 134.433594 66.804688 135.953125 65.503906 137.492188 64.714844 C 139.03125 63.917969 140.902344 63.519531 143.109375 63.519531 C 146.097656 63.519531 148.433594 64.398438 150.128906 66.140625 C 151.808594 67.878906 152.648438 70.570313 152.648438 74.214844 L 152.648438 91.777344 L 141.808594 91.777344 L 141.808594 76.585938 C 141.808594 74.851563 141.484375 73.628906 140.835938 72.90625 C 140.171875 72.179688 139.257813 71.828125 138.070313 71.828125 C 136.769531 71.828125 135.699219 72.3125 134.894531 73.28125 C 134.085938 74.246094 133.671875 75.996094 133.671875 78.511719 L 133.671875 91.777344 L 122.878906 91.777344 Z M 122.878906 64.152344 "/>
<path style=" stroke:none;fill-rule:evenodd;fill:rgb(47.851563%,48.242188%,49.021912%);fill-opacity:1;" d="M 107.238281 92.136719 L 117.554688 92.136719 L 117.554688 64.507813 L 107.238281 64.507813 Z M 107.238281 92.136719 "/>
<path style=" stroke:none;fill-rule:evenodd;fill:rgb(47.851563%,48.242188%,49.021912%);fill-opacity:1;" d="M 107.238281 61.210938 L 117.554688 61.210938 L 117.554688 54 L 107.238281 54 Z M 107.238281 61.210938 "/>
<path style=" stroke:none;fill-rule:evenodd;fill:rgb(47.851563%,48.242188%,49.021912%);fill-opacity:1;" d="M 74.058594 83.71875 L 84.457031 82.667969 C 84.882813 83.992188 85.476563 84.941406 86.253906 85.503906 C 87.023438 86.082031 88.050781 86.359375 89.339844 86.359375 C 90.746094 86.359375 91.835938 86.039063 92.605469 85.390625 C 93.207031 84.921875 93.503906 84.320313 93.503906 83.605469 C 93.503906 82.796875 93.105469 82.179688 92.328125 81.738281 C 91.753906 81.425781 90.253906 81.039063 87.820313 80.582031 C 84.1875 79.894531 81.660156 79.273438 80.246094 78.691406 C 78.839844 78.109375 77.640625 77.128906 76.675781 75.757813 C 75.703125 74.386719 75.21875 72.816406 75.21875 71.050781 C 75.21875 69.121094 75.746094 67.460938 76.789063 66.066406 C 77.835938 64.667969 79.273438 63.628906 81.105469 62.9375 C 82.941406 62.253906 85.398438 61.902344 88.488281 61.902344 C 91.746094 61.902344 94.152344 62.175781 95.707031 62.707031 C 97.257813 63.238281 98.546875 64.066406 99.589844 65.183594 C 100.621094 66.304688 101.480469 67.816406 102.175781 69.722656 L 92.246094 70.777344 C 91.984375 69.839844 91.5625 69.152344 90.960938 68.714844 C 90.132813 68.117188 89.140625 67.828125 87.972656 67.828125 C 86.796875 67.828125 85.925781 68.050781 85.390625 68.503906 C 84.847656 68.957031 84.585938 69.503906 84.585938 70.136719 C 84.585938 70.863281 84.925781 71.398438 85.609375 71.765625 C 86.292969 72.128906 87.785156 72.464844 90.089844 72.761719 C 93.5625 73.183594 96.152344 73.765625 97.847656 74.515625 C 99.550781 75.269531 100.847656 76.339844 101.742188 77.742188 C 102.648438 79.132813 103.097656 80.664063 103.097656 82.339844 C 103.097656 84.027344 102.621094 85.675781 101.664063 87.273438 C 100.71875 88.871094 99.214844 90.140625 97.171875 91.082031 C 95.117188 92.027344 92.328125 92.503906 88.796875 92.503906 C 83.8125 92.503906 80.257813 91.738281 78.140625 90.214844 C 76.023438 88.691406 74.664063 86.519531 74.058594 83.71875 Z M 74.058594 83.71875 "/>
<path style=" stroke:none;fill-rule:evenodd;fill:rgb(47.851563%,48.242188%,49.021912%);fill-opacity:1;" d="M 71.136719 91.503906 L 61.175781 91.503906 L 61.175781 86.925781 C 59.691406 88.804688 58.203125 90.148438 56.6875 90.941406 C 55.175781 91.738281 53.316406 92.140625 51.117188 92.140625 C 48.183594 92.140625 45.886719 91.253906 44.214844 89.46875 C 42.550781 87.6875 41.71875 84.9375 41.71875 81.234375 L 41.71875 63.253906 L 52.433594 63.253906 L 52.433594 78.789063 C 52.433594 80.5625 52.753906 81.828125 53.398438 82.566406 C 54.050781 83.3125 54.957031 83.683594 56.128906 83.683594 C 57.402344 83.683594 58.441406 83.183594 59.253906 82.195313 C 60.066406 81.195313 60.472656 79.417969 60.472656 76.847656 L 60.472656 63.253906 L 71.136719 63.253906 Z M 71.136719 91.503906 "/>
<path style=" stroke:none;fill-rule:evenodd;fill:rgb(47.851563%,48.242188%,49.021912%);fill-opacity:1;" d="M 12.316406 82.683594 L 18.535156 82.683594 C 20.640625 82.683594 22.117188 82.332031 22.972656 81.609375 C 23.839844 80.890625 24.269531 79.921875 24.269531 78.707031 C 24.269531 77.582031 23.84375 76.671875 22.992188 75.988281 C 22.136719 75.304688 20.648438 74.960938 18.507813 74.960938 L 12.316406 74.960938 Z M 12.316406 67.707031 L 17.617188 67.707031 C 19.519531 67.707031 20.839844 67.382813 21.59375 66.753906 C 22.339844 66.113281 22.710938 65.203125 22.710938 64.007813 C 22.710938 62.898438 22.339844 62.027344 21.59375 61.40625 C 20.839844 60.773438 19.546875 60.464844 17.703125 60.464844 L 12.316406 60.464844 Z M 0.0117188 52.738281 L 22.84375 52.738281 C 26.648438 52.738281 29.570313 53.652344 31.601563 55.472656 C 33.640625 57.292969 34.660156 59.550781 34.660156 62.230469 C 34.660156 64.488281 33.933594 66.421875 32.480469 68.039063 C 31.507813 69.113281 30.09375 69.964844 28.226563 70.589844 C 31.058594 71.246094 33.144531 72.382813 34.484375 73.980469 C 35.816406 75.589844 36.488281 77.605469 36.488281 80.027344 C 36.488281 82.007813 36.007813 83.785156 35.0625 85.367188 C 34.109375 86.945313 32.8125 88.191406 31.160156 89.113281 C 30.140625 89.683594 28.59375 90.101563 26.527344 90.355469 C 23.78125 90.707031 21.964844 90.882813 21.0625 90.882813 L 0.0117188 90.882813 Z M 0.0117188 52.738281 "/>
<path style=" stroke:none;fill-rule:evenodd;fill:rgb(10.594177%,9.812927%,9.423828%);fill-opacity:1;" d="M 438.71875 84.007813 L 449.121094 82.972656 C 449.550781 84.277344 450.148438 85.214844 450.921875 85.769531 C 451.695313 86.339844 452.722656 86.613281 454.011719 86.613281 C 455.421875 86.613281 456.507813 86.296875 457.28125 85.660156 C 457.878906 85.195313 458.175781 84.601563 458.175781 83.898438 C 458.175781 83.101563 457.78125 82.488281 457.003906 82.054688 C 456.429688 81.753906 454.925781 81.371094 452.492188 80.914063 C 448.859375 80.238281 446.328125 79.628906 444.914063 79.050781 C 443.503906 78.480469 442.304688 77.515625 441.339844 76.160156 C 440.363281 74.808594 439.878906 73.261719 439.878906 71.519531 C 439.878906 69.621094 440.40625 67.980469 441.453125 66.609375 C 442.496094 65.230469 443.9375 64.207031 445.773438 63.523438 C 447.609375 62.847656 450.070313 62.507813 453.160156 62.507813 C 456.421875 62.507813 458.828125 62.773438 460.382813 63.292969 C 461.9375 63.820313 463.226563 64.636719 464.265625 65.738281 C 465.300781 66.839844 466.160156 68.335938 466.855469 70.214844 L 456.921875 71.253906 C 456.65625 70.328125 456.234375 69.648438 455.628906 69.214844 C 454.804688 68.628906 453.8125 68.34375 452.644531 68.34375 C 451.464844 68.34375 450.597656 68.566406 450.0625 69.007813 C 449.515625 69.457031 449.253906 69.992188 449.253906 70.621094 C 449.253906 71.339844 449.59375 71.863281 450.28125 72.222656 C 450.964844 72.589844 452.460938 72.910156 454.761719 73.210938 C 458.238281 73.628906 460.828125 74.203125 462.527344 74.9375 C 464.230469 75.679688 465.53125 76.738281 466.425781 78.117188 C 467.328125 79.488281 467.777344 81.003906 467.777344 82.648438 C 467.777344 84.316406 467.304688 85.9375 466.347656 87.511719 C 465.398438 89.089844 463.894531 90.339844 461.847656 91.261719 C 459.796875 92.203125 457.003906 92.664063 453.46875 92.664063 C 448.480469 92.664063 444.921875 91.914063 442.804688 90.410156 C 440.6875 88.910156 439.328125 86.769531 438.71875 84.007813 Z M 438.71875 84.007813 "/>
<path style=" stroke:none;fill-rule:evenodd;fill:rgb(10.594177%,9.812927%,9.423828%);fill-opacity:1;" d="M 431.808594 56.210938 L 431.808594 64.0625 L 438.003906 64.0625 L 438.003906 71.925781 L 431.808594 71.925781 L 431.808594 81.90625 C 431.808594 83.105469 431.933594 83.902344 432.171875 84.289063 C 432.535156 84.886719 433.175781 85.195313 434.101563 85.195313 C 434.933594 85.195313 436.09375 84.964844 437.589844 84.503906 L 438.414063 91.945313 C 435.628906 92.523438 433.035156 92.8125 430.621094 92.8125 C 427.816406 92.8125 425.753906 92.46875 424.429688 91.78125 C 423.097656 91.097656 422.117188 90.046875 421.484375 88.648438 C 420.84375 87.246094 420.53125 84.96875 420.53125 81.828125 L 420.53125 71.925781 L 416.378906 71.925781 L 416.378906 64.0625 L 420.53125 64.0625 L 420.53125 56.214844 Z M 431.808594 56.210938 "/>
<path style=" stroke:none;fill-rule:evenodd;fill:rgb(10.594177%,9.812927%,9.423828%);fill-opacity:1;" d="M 406.558594 80.621094 L 415.679688 81.820313 C 415.179688 84.011719 414.351563 85.914063 413.210938 87.519531 C 412.058594 89.128906 410.59375 90.371094 408.804688 91.261719 C 407.027344 92.144531 404.753906 92.589844 402.003906 92.589844 C 399.34375 92.589844 397.132813 92.300781 395.367188 91.738281 C 393.597656 91.160156 392.074219 90.242188 390.804688 88.964844 C 389.523438 87.679688 388.527344 86.183594 387.808594 84.460938 C 387.089844 82.738281 386.722656 80.457031 386.722656 77.605469 C 386.722656 74.632813 387.15625 72.152344 388.046875 70.175781 C 388.6875 68.726563 389.5625 67.425781 390.683594 66.277344 C 391.800781 65.128906 392.945313 64.261719 394.128906 63.707031 C 395.996094 62.8125 398.394531 62.367188 401.316406 62.367188 C 405.40625 62.367188 408.523438 63.214844 410.671875 64.902344 C 412.8125 66.585938 414.328125 69.050781 415.1875 72.300781 L 406.15625 73.6875 C 405.878906 72.453125 405.359375 71.523438 404.609375 70.898438 C 403.863281 70.269531 402.863281 69.964844 401.601563 69.964844 C 400.015625 69.964844 398.726563 70.621094 397.742188 71.929688 C 396.761719 73.253906 396.269531 75.238281 396.269531 77.902344 C 396.269531 80.277344 396.761719 82.082031 397.734375 83.316406 C 398.714844 84.550781 399.949219 85.164063 401.464844 85.164063 C 402.71875 85.164063 403.773438 84.792969 404.632813 84.046875 C 405.488281 83.304688 406.132813 82.164063 406.558594 80.621094 Z M 406.558594 80.621094 "/>
<path style=" stroke:none;fill-rule:evenodd;fill:rgb(10.594177%,9.812927%,9.423828%);fill-opacity:1;" d="M 373.476563 75.003906 C 373.269531 72.910156 372.738281 71.414063 371.878906 70.515625 C 371.007813 69.609375 369.871094 69.15625 368.464844 69.15625 C 366.824219 69.15625 365.523438 69.84375 364.546875 71.207031 C 363.925781 72.054688 363.527344 73.316406 363.363281 75.003906 Z M 383.910156 80.179688 L 363.339844 80.179688 C 363.519531 81.917969 363.96875 83.210938 364.671875 84.058594 C 365.664063 85.28125 366.964844 85.886719 368.554688 85.886719 C 369.5625 85.886719 370.523438 85.628906 371.429688 85.089844 C 371.988281 84.753906 372.585938 84.164063 373.21875 83.3125 L 383.335938 84.292969 C 381.78125 87.128906 379.921875 89.160156 377.738281 90.390625 C 375.550781 91.617188 372.421875 92.234375 368.335938 92.234375 C 364.785156 92.234375 361.996094 91.710938 359.960938 90.65625 C 357.925781 89.605469 356.238281 87.925781 354.90625 85.632813 C 353.570313 83.339844 352.898438 80.648438 352.898438 77.550781 C 352.898438 73.144531 354.242188 69.578125 356.921875 66.855469 C 359.605469 64.128906 363.304688 62.757813 368.03125 62.757813 C 371.859375 62.757813 374.890625 63.378906 377.101563 64.597656 C 379.320313 65.8125 381.015625 67.589844 382.171875 69.898438 C 383.335938 72.21875 383.910156 75.238281 383.910156 78.957031 Z M 383.910156 80.179688 "/>
<g clip-path="url(#clip1)" clip-rule="nonzero">
<path style=" stroke:none;fill-rule:evenodd;fill:rgb(10.594177%,9.812927%,9.423828%);fill-opacity:1;" d="M 339.277344 63.910156 L 349.277344 63.910156 L 349.277344 90.472656 C 349.277344 93.863281 349.046875 96.261719 348.574219 97.675781 C 348.105469 99.085938 347.246094 100.230469 345.992188 101.101563 C 344.734375 101.984375 342.9375 102.421875 340.597656 102.421875 C 338.675781 102.421875 337.644531 102.738281 334.695313 102.527344 L 334.679688 94.5 C 335.777344 94.574219 337.902344 94.210938 338.617188 93.222656 C 339.054688 92.613281 339.277344 91.398438 339.277344 89.578125 Z M 339.277344 63.910156 "/>
</g>
<path style=" stroke:none;fill-rule:evenodd;fill:rgb(10.594177%,9.812927%,9.423828%);fill-opacity:1;" d="M 314.378906 78.105469 C 314.378906 80.472656 314.835938 82.191406 315.734375 83.257813 C 316.648438 84.320313 317.796875 84.851563 319.195313 84.851563 C 320.476563 84.851563 321.5625 84.332031 322.4375 83.285156 C 323.304688 82.238281 323.753906 80.472656 323.753906 78.003906 C 323.753906 75.820313 323.316406 74.214844 322.464844 73.195313 C 321.605469 72.175781 320.566406 71.660156 319.347656 71.660156 C 317.882813 71.660156 316.691406 72.195313 315.761719 73.257813 C 314.839844 74.320313 314.378906 75.933594 314.378906 78.105469 Z M 303.574219 53.898438 L 314.453125 53.898438 L 314.453125 67.089844 C 315.527344 65.980469 316.753906 65.15625 318.121094 64.597656 C 319.484375 64.046875 321.003906 63.765625 322.664063 63.765625 C 326.078125 63.765625 328.921875 64.976563 331.15625 67.390625 C 333.398438 69.808594 334.515625 73.273438 334.515625 77.789063 C 334.515625 80.800781 334.003906 83.464844 332.980469 85.746094 C 331.964844 88.042969 330.546875 89.753906 328.734375 90.890625 C 326.929688 92.023438 324.921875 92.589844 322.714844 92.589844 C 320.820313 92.589844 319.09375 92.191406 317.523438 91.402344 C 316.339844 90.773438 315.054688 89.605469 313.65625 87.894531 L 313.65625 91.972656 L 303.574219 91.972656 Z M 303.574219 53.898438 "/>
<path style=" stroke:none;fill-rule:evenodd;fill:rgb(10.594177%,9.812927%,9.423828%);fill-opacity:1;" d="M 271.554688 72.332031 C 271.554688 76.28125 272.28125 78.582031 273.753906 80.308594 C 275.214844 82.03125 277.21875 82.894531 279.738281 82.894531 C 282.335938 82.894531 284.347656 82.050781 285.765625 80.363281 C 287.1875 78.671875 287.90625 76.171875 287.90625 71.800781 C 287.90625 68.109375 287.160156 66.003906 285.675781 64.300781 C 284.195313 62.605469 282.179688 61.757813 279.628906 61.757813 C 277.199219 61.757813 275.242188 62.617188 273.765625 64.347656 C 272.296875 66.070313 271.554688 68.347656 271.554688 72.332031 Z M 259.464844 72.273438 C 259.464844 65.886719 261.253906 60.910156 264.800781 57.355469 C 268.359375 53.792969 273.3125 52.015625 279.65625 52.015625 C 286.171875 52.015625 291.183594 53.765625 294.710938 57.265625 C 298.21875 60.753906 299.988281 65.65625 299.988281 71.957031 C 299.988281 76.527344 299.214844 80.28125 297.675781 83.210938 C 296.136719 86.132813 293.914063 88.410156 291.011719 90.042969 C 288.097656 91.675781 284.484375 92.484375 280.140625 92.484375 C 275.734375 92.484375 272.085938 91.78125 269.1875 90.378906 C 266.300781 88.96875 263.964844 86.742188 262.160156 83.703125 C 260.367188 80.65625 259.464844 76.847656 259.464844 72.273438 Z M 259.464844 72.273438 "/>
<g clip-path="url(#clip2)" clip-rule="nonzero">
<path style=" stroke:none;fill-rule:evenodd;fill:rgb(10.594177%,9.812927%,9.423828%);fill-opacity:1;" d="M 468.339844 62.675781 L 474.027344 62.675781 L 474.027344 63.914063 L 472.117188 63.914063 L 472.117188 67.683594 L 470.242188 67.683594 L 470.242188 63.914063 L 468.339844 63.914063 Z M 474.855469 62.675781 L 477.320313 62.675781 L 478.269531 65.722656 L 479.21875 62.675781 L 481.671875 62.675781 L 481.671875 67.683594 L 480.144531 67.683594 L 480.144531 63.867188 L 478.960938 67.683594 L 477.570313 67.683594 L 476.390625 63.867188 L 476.390625 67.683594 L 474.855469 67.683594 Z M 474.855469 62.675781 "/>
</g>
<path style=" stroke:none;fill-rule:evenodd;fill:rgb(89.0625%,0%,8.616638%);fill-opacity:1;" d="M 344.644531 46.246094 C 348.722656 46.246094 352.027344 49.550781 352.027344 53.628906 C 352.027344 57.707031 348.722656 61.007813 344.644531 61.007813 C 340.570313 61.007813 337.265625 57.707031 337.265625 53.628906 C 337.265625 49.550781 340.570313 46.246094 344.644531 46.246094 Z M 344.644531 46.246094 "/>
<path style=" stroke:none;fill-rule:evenodd;fill:rgb(7.446289%,32.542419%,61.914063%);fill-opacity:1;" d="M 238.699219 11.628906 C 299.414063 -0.0390625 362.140625 0.949219 362.296875 26.597656 C 362.335938 32.953125 358.773438 39.941406 350.335938 45.609375 C 351.464844 42.6875 352.269531 38.21875 352.265625 35.0625 C 352.234375 9.519531 280.722656 11.914063 226.300781 22.363281 C 171.878906 32.808594 146.195313 42.808594 124.671875 51.894531 C 143.824219 39.652344 177.988281 23.300781 238.699219 11.628906 Z M 238.699219 11.628906 "/>
</g>
</svg>
