<?xml version="1.0" encoding="utf-8"?>
<!-- Generator: Adobe Illustrator 24.0.1, SVG Export Plug-In . SVG Version: 6.00 Build 0)  -->
<svg version="1.1" id="Layer_1" xmlns="http://www.w3.org/2000/svg" xmlns:xlink="http://www.w3.org/1999/xlink" x="0px" y="0px"
	 viewBox="0 0 48 29" style="enable-background:new 0 0 48 29;" xml:space="preserve">
<style type="text/css">
	.st0{fill:#603393;}
</style>
<title>Stack_Layers</title>
<path class="st0" d="M40,13c-0.3,0-0.7,0-1,0.1V13c0-1.4-0.4-2.9-1.2-4.1c-2.3-3.8-7.2-5-11-2.7c-2.2-4.4-7.1-6.8-11.9-5.9
	C9,1.5,5.1,7.2,6.2,13.2c-3.6,0.8-6.2,4-6.2,7.7c0,4.4,3.5,8,8,8h32c4.4,0,8-3.6,8-8S44.4,13,40,13z M40,27H8
	c-3.3,0.1-6.1-2.5-6.2-5.8c-0.1-3.3,2.5-6.1,5.8-6.2c1.3-0.1,2.5,0.2,3.6,0.9l1.1-1.7c-1.2-0.7-2.6-1.1-4-1.2C8.1,12.3,8,11.7,8,11
	c0-5,4-9,9-9c3.8,0,7.2,2.4,8.5,6l0.1,0.3c0.2,0.6,0.3,1.2,0.4,1.8l2-0.2c-0.1-0.6-0.2-1.2-0.4-1.8C28.6,7.4,29.8,7,31,7
	c3.3,0,6,2.7,6,6c0,0.4,0,0.8-0.1,1.1l0,0.1c-0.1,0.7-0.4,1.3-0.7,1.9l1.7,1c0.4-0.6,0.7-1.3,0.9-2c0.4-0.1,0.8-0.1,1.3-0.2
	c3.3,0,6,2.7,6,6S43.3,27,40,27z"/>
</svg>
