<?xml version="1.0" encoding="utf-8"?>
<!-- Generator: Adobe Illustrator 25.2.1, SVG Export Plug-In . SVG Version: 6.00 Build 0)  -->
<svg version="1.1" id="icons" xmlns="http://www.w3.org/2000/svg" xmlns:xlink="http://www.w3.org/1999/xlink" x="0px" y="0px"
	 viewBox="0 0 40 47" style="enable-background:new 0 0 40 47;" xml:space="preserve">
<style type="text/css">
	.st0{fill:#5F249F;}
</style>
<path class="st0" d="M39.9,40.4l-7.1-12.2c2.2-1.9,4-4.2,5.2-6.8c0.2-0.5,0-1.1-0.5-1.3c-0.5-0.2-1.1,0-1.3,0.5
	c-1,2.3-2.5,4.3-4.4,5.9l-5.8-10h-0.1c0.1-0.5,0.2-1,0.2-1.5c0-2.7-1.7-5-4.3-5.8l1.1-1.7C22.9,7.4,23,7.2,23,7V4
	c0-0.2-0.1-0.4-0.2-0.5l-2-3c-0.3-0.5-0.9-0.6-1.4-0.3c-0.1,0.1-0.2,0.2-0.3,0.3l-2,3C17.1,3.6,17,3.8,17,4v3c0,0.2,0.1,0.4,0.2,0.6
	l1.1,1.7C15.7,10,14,12.3,14,15c0,0.5,0.1,1,0.2,1.5l-5.8,10C6.5,24.9,5,22.9,4,20.6c-0.2-0.5-0.8-0.7-1.3-0.5
	c-0.5,0.2-0.7,0.8-0.5,1.3c1.2,2.6,3,4.9,5.2,6.8L0.1,40.4c-0.2,0.3-0.2,0.7,0,1l2.9,5c0.2,0.3,0.5,0.5,0.9,0.5
	c0.4,0,0.7-0.2,0.9-0.5l8.6-14.7c1.8,0.7,3.8,1.1,5.7,1.2v4c0,0.6,0.4,1,1,1s1-0.4,1-1v-4c1.9-0.1,3.9-0.5,5.7-1.2l8.6,14.7
	c0.2,0.3,0.5,0.5,0.9,0.5c0.4,0,0.7-0.2,0.9-0.5l2.9-5C40.1,41.1,40.1,40.7,39.9,40.4z M19,4.3l1-1.5l1,1.5v2.4l-1,1.5l-1-1.5V4.3z
	 M20,11c2.2,0,4,1.8,4,4c0,2.2-1.8,4-4,4s-4-1.8-4-4C16,12.8,17.8,11,20,11z M3.9,44l-1.7-3l6.7-11.5c0.8,0.6,1.7,1.1,2.6,1.5
	L3.9,44z M12.5,29.2c-0.9-0.4-1.8-0.9-2.6-1.5l5.3-9.1c0.6,0.8,1.4,1.4,2.3,1.9L12.5,29.2z M21,30.9V28c0-0.6-0.4-1-1-1s-1,0.4-1,1
	v3c-1.6-0.1-3.2-0.5-4.7-1l5.3-9c0.1,0,0.3,0,0.4,0s0.3,0,0.4,0l5.3,9C24.2,30.5,22.6,30.8,21,30.9z M22.4,20.5
	c0.9-0.4,1.7-1.1,2.3-1.9l5.3,9.1c-0.8,0.6-1.7,1.1-2.6,1.5L22.4,20.5z M36.1,44l-7.6-13c0.9-0.4,1.8-0.9,2.6-1.5L37.8,41L36.1,44z"
	/>
</svg>
