<?xml version="1.0" encoding="utf-8"?>
<!-- Generator: Adobe Illustrator 24.0.1, SVG Export Plug-In . SVG Version: 6.00 Build 0)  -->
<svg version="1.1" id="Layer_1" xmlns="http://www.w3.org/2000/svg" xmlns:xlink="http://www.w3.org/1999/xlink" x="0px" y="0px"
	 viewBox="0 0 47.4 47.4" style="enable-background:new 0 0 47.4 47.4;" xml:space="preserve">
<style type="text/css">
	.st0{fill:#5F249F;}
</style>
<title>DXC_Centers</title>
<g>
	<path class="st0" d="M11.7,9.7c-1.1,0-2,0.9-2,2v8v9v8c0,1.1,0.9,2,2,2h23c1.1,0,2-0.9,2-2v-8v-9v-8c0-1.1-0.9-2-2-2H11.7z
		 M11.7,11.7h23v7h-23V11.7z M11.7,20.7h23v7h-23V20.7z M11.7,36.7v-7h23v7H11.7z"/>
	<rect x="13.7" y="14.7" class="st0" width="2" height="2"/>
	<rect x="13.7" y="23.7" class="st0" width="2" height="2"/>
	<rect x="13.7" y="32.7" class="st0" width="2" height="2"/>
	<path class="st0" d="M4.7,7.7c0-1.7,1.3-3,3-3h13.6L20,6l1.4,1.4l3-3c0.4-0.4,0.4-1,0-1.4l-3-3L20,1.4l1.3,1.3H7.7
		c-2.8,0-5,2.2-5,5v14h2V7.7z"/>
	<path class="st0" d="M42.7,7.7v13.6L41.4,20L40,21.4l3,3c0.2,0.2,0.4,0.3,0.7,0.3c0.3,0,0.5-0.1,0.7-0.3l3-3L46,20l-1.3,1.3V7.7
		c0-2.8-2.2-5-5-5h-13v2h13C41.4,4.7,42.7,6.1,42.7,7.7z"/>
	<path class="st0" d="M42.7,39.7c0,1.7-1.3,3-3,3H26.1l1.3-1.3L26,40l-3,3c-0.4,0.4-0.4,1,0,1.4l3,3l1.4-1.4l-1.3-1.3h13.6
		c2.8,0,5-2.2,5-5v-13h-2V39.7z"/>
	<path class="st0" d="M4.7,39.7V27.1L6,28.4L7.4,27l-3-3c-0.4-0.4-1-0.4-1.4,0l-3,3l1.4,1.4l1.3-1.3v12.6c0,2.8,2.2,5,5,5h13v-2h-13
		C6.1,42.7,4.7,41.4,4.7,39.7z"/>
</g>
</svg>
