<?xml version="1.0" encoding="utf-8"?>
<!-- Generator: Adobe Illustrator 24.0.1, SVG Export Plug-In . SVG Version: 6.00 Build 0)  -->
<svg version="1.1" id="Layer_1" xmlns="http://www.w3.org/2000/svg" xmlns:xlink="http://www.w3.org/1999/xlink" x="0px" y="0px"
	 viewBox="0 0 51 45" style="enable-background:new 0 0 51 45;" xml:space="preserve">
<style type="text/css">
	.st0{fill:#603393;}
</style>
<title>Stack_Layers</title>
<g>
	<path class="st0" d="M50,38h-2V14c0-1.7-1.3-3-3-3H24v2h21c0.6,0,1,0.4,1,1v24H32c-0.3,0-0.5,0.1-0.7,0.3L30.6,39h-7.2l-0.7-0.7
		C22.5,38.1,22.3,38,22,38H8v-2H6v2H4c-0.6,0-1,0.4-1,1v2c0,2.2,1.8,4,4,4h40c2.2,0,4-1.8,4-4v-2C51,38.4,50.6,38,50,38z M49,41
		c0,1.1-0.9,2-2,2H7c-1.1,0-2-0.9-2-2v-1h16.6l0.7,0.7c0.2,0.2,0.4,0.3,0.7,0.3h8c0.3,0,0.5-0.1,0.7-0.3l0.7-0.7H49V41z"/>
	<path class="st0" d="M18,35c1.7,0,3-1.3,3-3v-8h-2v3H2V7h17v9h2V3c0-1.7-1.3-3-3-3H3C1.3,0,0,1.3,0,3v29c0,1.7,1.3,3,3,3H18z M3,2
		h15c0.6,0,1,0.4,1,1v2H2V3C2,2.4,2.4,2,3,2z M2,32v-3h17v3c0,0.6-0.4,1-1,1H3C2.4,33,2,32.6,2,32z"/>
	<rect x="9" y="30" class="st0" width="3" height="2"/>
	<polygon class="st0" points="21.6,23.6 23,22.2 21.7,20.9 25.9,20.9 24.6,22.2 26,23.6 29.7,19.9 26,16.2 24.6,17.6 25.9,18.9 
		21.7,18.9 23,17.6 21.6,16.2 17.9,19.9 	"/>
	<path class="st0" d="M28.8,31v2.2c0,0,0,0,0,0c0,1.2,1,2.1,2.1,2.1h11.2c1.2,0,2.1-0.9,2.1-2.1V31c0-1.4-2-2.9-4.2-3.7
		c1.3-1.1,2.1-2.7,2-4.5v-1.6c0-0.2,0-0.4,0-0.7c-0.2-3-2.8-5.4-5.8-5.2c-3,0.2-5.4,2.8-5.2,5.8v1.6c0,0.1,0,0.2,0,0.3
		c0,1.7,0.8,3.2,2,4.3C30.7,28.1,28.8,29.6,28.8,31z M36.5,17.3c0.1,0,0.1,0,0.2,0c2,0.1,3.4,1.9,3.3,3.8v1.6c0,0.2,0,0.4,0,0.5
		c-0.1,1.9-1.8,3.4-3.8,3.2c-1.9-0.1-3.4-1.8-3.2-3.8v-1.6c0-0.1,0-0.2,0-0.2C33,19,34.5,17.4,36.5,17.3z M30.8,31
		c0.2-0.7,3.2-2.4,5.8-2.4c2.6,0,5.5,1.8,5.8,2.4v2.2c0,0.1-0.1,0.1-0.1,0.1H30.9c-0.1,0-0.1-0.1-0.1-0.1V31z"/>
	<path class="st0" d="M3.9,20.8v1.9c0,1.1,0.9,1.9,1.9,1.9h9.4c1.1,0,1.9-0.9,1.9-1.9v-1.9c0-1.2-1.5-2.4-3.4-3.1
		c1-0.9,1.6-2.2,1.5-3.7v-1.4c0-0.2,0-0.4,0-0.6c-0.2-2.6-2.4-4.6-5.1-4.4C7.6,7.7,5.6,10,5.8,12.6V14c0,0.1,0,0.1,0,0.2
		c0,1.4,0.6,2.6,1.5,3.5C5.5,18.4,3.9,19.6,3.9,20.8z M10.6,9.6L10.6,9.6c0.1,0,0.2,0,0.2,0c1.5,0.1,2.6,1.5,2.5,3V14
		c0,0.2,0,0.3,0,0.5c-0.1,1.5-1.5,2.6-3,2.5s-2.6-1.5-2.5-3v-1.4c0-0.1,0-0.1,0-0.2C7.8,10.9,9,9.6,10.6,9.6z M5.9,20.9
		c1.2-1.1,2.8-1.8,4.4-1.9c0.1,0,0.1,0,0.2,0c0.1,0,0.1,0,0.2,0c0,0,0,0,0,0c2,0.1,4.1,1.3,4.4,1.9l0.1,1.7H5.9V20.9z"/>
</g>
</svg>
